<?xml version="1.0" standalone="no"?>
<!DOCTYPE svg PUBLIC "-//W3C//DTD SVG 20010904//EN"
 "http://www.w3.org/TR/2001/REC-SVG-20010904/DTD/svg10.dtd">
<svg version="1.0" xmlns="http://www.w3.org/2000/svg"
 width="4322.000000pt" height="4322.000000pt" viewBox="0 0 4322.000000 4322.000000"
 preserveAspectRatio="xMidYMid meet">
<metadata>
Created by potrace 1.11, written by Peter Selinger 2001-2013
</metadata>
<g transform="translate(0.000000,4322.000000) scale(0.100000,-0.100000)"
fill="#000000" stroke="none">
<path d="M187 43204 c-1 -2 -15 -5 -30 -8 -52 -9 -91 -40 -117 -91 l-25 -50
-1 -21433 c-1 -20218 0 -21436 17 -21484 21 -64 51 -93 114 -110 43 -12 3131
-14 21480 -14 l21430 1 50 25 c40 20 55 35 75 75 l25 50 0 21445 0 21445 -25
50 c-20 40 -35 55 -75 75 l-50 25 -21432 1 c-11788 0 -21434 -1 -21436 -2z"/>
</g>
</svg>
